#!OML:ASF F:\VICON\USERDATA\INSTALL\Justin_Nancy\Justin_Nancy.ASF
:FULLY-SPECIFIED
:DEGREES
119
root -0.94431 17.3224 40.8044 4.55736 -3.23674 -5.75512
lowerback 12.1283 3.11949 6.68129
upperback -1.3388 5.3973 3.07504
thorax -7.93709 2.3954 -1.47047
lowerneck -23.5997 -6.63655 -10.6133
upperneck 13.1097 -7.49589 10.0805
head 8.73714 -3.03033 4.08666
rclavicle -9.64106e-015 1.43125e-014
rhumerus -32.9652 9.55105 -88.241
rradius 120.531
rwrist -15.2705
rhand -14.4592 23.2719
rfingers 7.12502
rthumb 11.6863 -6.38217
lclavicle -9.64106e-015 1.43125e-014
lhumerus -58.4373 -3.24316 94.6593
lradius 103.916
lwrist 32.0767
lhand -19.4299 8.22662
lfingers 7.12502
lthumb 6.8902 38.0945
rfemur 7.45335 0.580999 31.6406
rtibia 28.3428
rfoot 0.995984 -4.55027
rtoes -19.426
lfemur -46.984 2.40877 -14.1079
ltibia 80.3507
lfoot 2.65367 3.07134
ltoes -4.25669
120
root -0.933259 17.4396 41.4239 4.80307 -2.828 -5.49635
lowerback 11.3542 3.22876 6.81298
upperback -1.60509 5.48964 2.83599
thorax -7.73945 2.43443 -1.76627
lowerneck -23.0435 -6.60767 -10.6114
upperneck 13.3377 -7.5173 9.99825
head 8.72076 -3.06409 4.06228
rclavicle -6.29153e-014 -3.97569e-015
rhumerus -32.8995 9.66694 -88.2341
rradius 121.524
rwrist -14.7804
rhand -14.5623 24.5546
rfingers 7.12502
rthumb 11.5869 -5.10507
lclavicle -6.29153e-014 -3.97569e-015
lhumerus -60.0277 -2.88299 94.3045
lradius 104.283
lwrist 31.9547
lhand -19.4316 7.19501
lfingers 7.12502
lthumb 6.88855 37.0629
rfemur 9.59445 0.177654 30.7562
rtibia 25.9567
rfoot 6.46791 -3.0425
rtoes -18.9391
lfemur -47.2747 1.60015 -14.8333
ltibia 75.4126
lfoot 2.37336 3.40834
ltoes -4.0437
121
root -0.930176 17.5365 42.0354 4.97114 -2.45446 -4.94087
lowerback 10.4712 3.37553 6.54486
upperback -1.72082 5.55059 2.51019
thorax -7.3429 2.4847 -1.91251
lowerneck -22.4586 -6.55083 -10.5267
upperneck 13.5097 -7.53271 9.95444
head 8.67787 -3.08764 4.03918
rclavicle -8.35393e-014 -1.43125e-014
rhumerus -32.8168 9.55066 -88.208
rradius 122.444
rwrist -13.6429
rhand -14.1721 25.5427
rfingers 7.12502
rthumb 11.9632 -4.09546
lclavicle -8.35393e-014 -1.43125e-014
lhumerus -61.3898 -2.54481 93.8026
lradius 104.68
lwrist 31.8431
lhand -19.3079 6.30858
lfingers 7.12502
lthumb 7.00793 36.1726
rfemur 11.7114 0.113638 29.6649
rtibia 23.5753
rfoot 12.2269 -2.50909
rtoes -18.5264
lfemur -47.2956 0.919731 -15.8214
ltibia 70.2083
lfoot 2.18154 3.16749
ltoes -4.4961
122
root -0.932558 17.6005 42.633 5.05741 -2.06295 -4.72613
lowerback 9.86171 3.40932 6.44158
upperback -1.81558 5.52453 2.36893
thorax -7.09189 2.48319 -1.95912
lowerneck -22.2136 -6.49281 -10.5086
upperneck 13.6226 -7.50163 9.99572
head 8.67312 -3.07443 4.05953
rclavicle 4.78574e-014 -1.98785e-014
rhumerus -32.5823 10.0122 -88.2275
rradius 123.383
rwrist -12.2551
rhand -13.2523 24.8407
rfingers 7.12502
rthumb 12.85 -4.74372
lclavicle 4.78574e-014 -1.98785e-014
lhumerus -62.7779 -1.88808 93.2356
lradius 105.092
lwrist 31.3521
lhand -20.3535 8.08943
lfingers 7.12502
lthumb 5.99857 37.9845
rfemur 13.7589 0.440012 29.1766
rtibia 21.4378
rfoot 17.6405 -2.99543
rtoes -15.4326
lfemur -47.0287 0.390282 -16.3629
ltibia 64.8323
lfoot 2.07559 2.16171
ltoes -7.78429
123
root -0.94066 17.6431 43.2295 4.9452 -1.82511 -4.72175
lowerback 9.6083 3.45969 6.47641
upperback -1.90361 5.57398 2.28852
thorax -7.02612 2.50596 -2.05386
lowerneck -22.1667 -6.5559 -10.5887
upperneck 13.635 -7.6191 10.2407
head 8.69777 -3.10975 4.14073
rclavicle -6.20705e-014 -3.02153e-014
rhumerus -32.2105 10.7322 -88.2203
rradius 124.179
rwrist -10.9379
rhand -13.2124 24.0799
rfingers 7.12502
rthumb 12.8885 -5.50216
lclavicle -6.20705e-014 -3.02153e-014
lhumerus -64.2392 -1.29189 92.5954
lradius 105.607
lwrist 30.911
lhand -20.1531 7.09382
lfingers 7.12502
lthumb 6.192 36.9833
rfemur 15.8002 1.01664 29.0479
rtibia 19.839
rfoot 22.1073 -3.38849
rtoes -11.117
lfemur -46.2063 -0.0955887 -16.5464
ltibia 59.2887
lfoot 2.37071 1.09239
ltoes -12.0677
124
root -0.949172 17.7114 43.8334 4.95794 -1.71716 -4.54327
lowerback 8.97477 3.57067 6.39531
upperback -1.80295 5.63882 2.12955
thorax -6.54109 2.55952 -2.13197
lowerneck -21.946 -6.78858 -10.7591
upperneck 12.8862 -7.92192 10.6145
head 8.46641 -3.23438 4.24731
rclavicle 1.31198e-014 1.51076e-014
rhumerus -31.5691 11.322 -88.1356
rradius 124.987
rwrist -9.63031
rhand -13.5932 25.7873
rfingers 7.12502
rthumb 12.5213 -3.81758
lclavicle 1.31198e-014 1.51076e-014
lhumerus -65.2973 -0.809429 91.9501
lradius 106.176
lwrist 30.7763
lhand -19.7331 5.67976
lfingers 7.12502
lthumb 6.59747 35.557
rfemur 17.3425 1.63536 28.7127
rtibia 19.0201
rfoot 25.6821 -2.82107
rtoes -7.18882
lfemur -45.2739 -0.638795 -16.8057
ltibia 53.5876
lfoot 3.29175 0.154802
ltoes -15.0563
125
root -0.973585 17.7973 44.4127 5.04447 -1.65069 -4.25355
lowerback 8.6313 3.67385 5.97409
upperback -1.75712 5.68703 1.96186
thorax -6.31287 2.60647 -2.0535
lowerneck -22.5516 -6.67192 -10.6741
upperneck 13.4287 -7.79355 10.727
head 8.74054 -3.13514 4.29139
rclavicle -1.0138e-014 -7.95139e-016
rhumerus -31.3084 11.9597 -88.2761
rradius 126.329
rwrist -8.21044
rhand -13.3656 27.5898
rfingers 7.12502
rthumb 12.7407 -2.00145
lclavicle -1.0138e-014 -7.95139e-016
lhumerus -66.2768 -0.337208 91.2668
lradius 106.751
lwrist 30.4892
lhand -19.6862 4.93199
lfingers 7.12502
lthumb 6.6427 34.8078
rfemur 18.4162 3.03624 28.7618
rtibia 18.7997
rfoot 28.6555 -3.22312
rtoes -2.576
lfemur -44.4322 -1.08605 -17.0399
ltibia 47.8751
lfoot 5.09855 -0.784731
ltoes -15.7549
126
root -0.994708 17.86 44.9935 5.19957 -1.77758 -4.15978
lowerback 8.23248 3.78594 5.72435
upperback -1.74889 5.76962 1.83014
thorax -6.07978 2.66343 -2.03161
lowerneck -22.8071 -6.53074 -10.5593
upperneck 13.7505 -7.6524 10.7997
head 8.87687 -3.04481 4.32182
rclavicle 5.07398e-014 1.90833e-014
rhumerus -31.3198 12.641 -88.5325
rradius 127.457
rwrist -6.81933
rhand -13.5381 27.8579
rfingers 7.12502
rthumb 12.5744 -1.74372
lclavicle 5.07398e-014 1.90833e-014
lhumerus -67.3359 0.0804954 90.5808
lradius 107.356
lwrist 30.3807
lhand -19.8234 3.92299
lfingers 7.12502
lthumb 6.51033 33.8029
rfemur 19.2212 4.65481 29.1254
rtibia 19.2174
rfoot 30.2294 -3.80483
rtoes 0.643945
lfemur -43.6264 -1.2875 -17.0646
ltibia 42.362
lfoot 7.46724 -1.60213
ltoes -16.1735
127
root -0.998852 17.9269 45.6166 5.23588 -2.26293 -3.90317
lowerback 6.91359 3.98382 5.3803
upperback -1.28927 5.87137 1.76401
thorax -4.86382 2.77396 -1.79432
lowerneck -22.7686 -6.15709 -10.2862
upperneck 13.4934 -7.15106 10.5216
head 8.70141 -2.82759 4.25562
rclavicle -5.85421e-014 -1.51076e-014
rhumerus -30.4805 13.4829 -88.3303
rradius 127.651
rwrist -5.54991
rhand -14.621 29.7618
rfingers 7.12502
rthumb 11.5303 0.0989079
lclavicle -5.85421e-014 -1.51076e-014
lhumerus -67.9887 0.693578 90.0308
lradius 108.019
lwrist 30.5192
lhand -19.3927 2.49425
lfingers 7.12502
lthumb 6.92611 32.3609
rfemur 20.0076 6.30766 29.1766
rtibia 20.4047
rfoot 29.987 -3.98414
rtoes 2.18075
lfemur -42.5329 -1.4312 -17.264
ltibia 37.4584
lfoot 9.44348 -1.6819
ltoes -14.0439
